# xmcd
#
# Track frame offsets: 
#        183
#        31610
#        56635
#        83435
#        103010
#        114148
#        169900
#        182435
#        190685
#        202160
#        214835
#        229910
#        236133
#        244985
#        255410
#        266810
#        279485
#        292838
#
# Disc length: 4059 seconds
#
# Revision: 0
# Processed by: cddbd v1.5.2PL0 Copyright (c) Steve Scherf et al.
# Submitted via: ExactAudioCopyFreeDBPlugin 1.0
#
DISCID=f80fd912
DTITLE=Alfredo Kraus, Edelmiro Arnaltes - Alfredo Kraus Recital Cappri
DTITLE=ccio
DYEAR=1989
DGENRE=Klassik
TTITLE0=Liszt - Drei Petrarca-Sonette - Pace non trovo
TTITLE1=Benedetto
TTITLE2=I vidi in terra
TTITLE3=Donizetti - Vier Arien - La Corrispondenza amorosa
TTITLE4=Amore e Morte
TTITLE5=Le dernière nuit d'un novice
TTITLE6=Le crèpuscule
TTITLE7=Mascagni - Drei Arietten - La tua Stella
TTITLE8=Pena d'amore
TTITLE9=Rosa
TTITLE10=Respighi - Notte
TTITLE11=Stornellatrice
TTITLE12=Ma come potrei
TTITLE13=Nebbie
TTITLE14=Tanto Bella
TTITLE15=Verdi - Ad una stella
TTITLE16=Il tramento
TTITLE17=La Spazzacamino
EXTD=
EXTT0=
EXTT1=
EXTT2=
EXTT3=
EXTT4=
EXTT5=
EXTT6=
EXTT7=
EXTT8=
EXTT9=
EXTT10=
EXTT11=
EXTT12=
EXTT13=
EXTT14=
EXTT15=
EXTT16=
EXTT17=
PLAYORDER=
